<?xml version="1.0" encoding="iso-8859-1"?>
<!-- Uploaded to: SVG Repo, www.svgrepo.com, Generator: SVG Repo Mixer Tools -->
<!DOCTYPE svg PUBLIC "-//W3C//DTD SVG 1.1//EN" "http://www.w3.org/Graphics/SVG/1.1/DTD/svg11.dtd">
<svg fill="#000000" height="800px" width="800px" version="1.1" id="Capa_1" xmlns="http://www.w3.org/2000/svg" xmlns:xlink="http://www.w3.org/1999/xlink" 
	 viewBox="0 0 288.398 288.398" xml:space="preserve">
<g>
	<path d="M144.2,275.566c-6.629,0-13.257-1.969-18.914-5.905c-22.776-15.848-63.715-45.583-81.988-66.667
		C13.758,168.908,0,135.452,0,97.706c0-46.799,38.074-84.873,84.874-84.873c22.57,0,43.743,8.976,59.325,24.196
		c15.582-15.221,36.755-24.196,59.325-24.196c46.8,0,84.874,38.074,84.874,84.873c0,37.746-13.758,71.202-43.298,105.288
		c-18.271,21.082-59.213,50.819-81.992,66.67C157.454,273.598,150.827,275.566,144.2,275.566z M84.874,52.833
		C60.131,52.833,40,72.962,40,97.706c0,27.566,10.653,52.698,33.526,79.091c10.687,12.332,36.941,33.596,70.673,57.281
		c33.732-23.688,59.988-44.952,70.673-57.281c22.873-26.393,33.526-51.524,33.526-79.091c0-24.743-20.131-44.873-44.874-44.873
		c-17.736,0-33.846,10.491-41.04,26.728c-3.205,7.233-10.373,11.897-18.285,11.897s-15.08-4.664-18.285-11.897
		C118.72,63.324,102.61,52.833,84.874,52.833z"/>
</g>
</svg>